<svg width="18" height="21" viewBox="0 0 18 21" xmlns="http://www.w3.org/2000/svg">
<path d="M0.75 3.0957C0.75 2.43266 1.01339 1.79678 1.48223 1.32794C1.95107 0.859095 2.58696 0.595703 3.25 0.595703H14.75C15.0783 0.595703 15.4034 0.660368 15.7067 0.786004C16.01 0.911641 16.2856 1.09579 16.5178 1.32794C16.7499 1.56008 16.9341 1.83568 17.0597 2.13899C17.1853 2.44231 17.25 2.7674 17.25 3.0957V17.3457C17.25 17.5446 17.171 17.7354 17.0303 17.876C16.8897 18.0167 16.6989 18.0957 16.5 18.0957H3.03538C2.60163 18.0957 2.23618 18.4961 2.54289 18.8028C2.73043 18.9903 2.98478 19.0957 3.25 19.0957H16.5C16.6989 19.0957 16.8897 19.1747 17.0303 19.3154C17.171 19.456 17.25 19.6468 17.25 19.8457C17.25 20.0446 17.171 20.2354 17.0303 20.376C16.8897 20.5167 16.6989 20.5957 16.5 20.5957H3.25C2.58696 20.5957 1.95107 20.3323 1.48223 19.8635C1.01339 19.3946 0.75 18.7587 0.75 18.0957V3.0957ZM9 6.5957C9.26522 6.5957 9.51957 6.49035 9.70711 6.30281C9.89464 6.11527 10 5.86092 10 5.5957C10 5.33049 9.89464 5.07613 9.70711 4.8886C9.51957 4.70106 9.26522 4.5957 9 4.5957C8.73478 4.5957 8.48043 4.70106 8.29289 4.8886C8.10536 5.07613 8 5.33049 8 5.5957C8 5.86092 8.10536 6.11527 8.29289 6.30281C8.48043 6.49035 8.73478 6.5957 9 6.5957ZM8.25 8.3457V13.3457C8.25 13.5446 8.32902 13.7354 8.46967 13.876C8.61032 14.0167 8.80109 14.0957 9 14.0957C9.19891 14.0957 9.38968 14.0167 9.53033 13.876C9.67098 13.7354 9.75 13.5446 9.75 13.3457V8.3457C9.75 8.14679 9.67098 7.95603 9.53033 7.81537C9.38968 7.67472 9.19891 7.5957 9 7.5957C8.80109 7.5957 8.61032 7.67472 8.46967 7.81537C8.32902 7.95603 8.25 8.14679 8.25 8.3457Z" />
<path d="M0.75 3.0957C0.75 2.43266 1.01339 1.79678 1.48223 1.32794C1.95107 0.859095 2.58696 0.595703 3.25 0.595703H14.75C15.0783 0.595703 15.4034 0.660368 15.7067 0.786004C16.01 0.911641 16.2856 1.09579 16.5178 1.32794C16.7499 1.56008 16.9341 1.83568 17.0597 2.13899C17.1853 2.44231 17.25 2.7674 17.25 3.0957V17.3457C17.25 17.5446 17.171 17.7354 17.0303 17.876C16.8897 18.0167 16.6989 18.0957 16.5 18.0957H3.03538C2.60163 18.0957 2.23618 18.4961 2.54289 18.8028C2.73043 18.9903 2.98478 19.0957 3.25 19.0957H16.5C16.6989 19.0957 16.8897 19.1747 17.0303 19.3154C17.171 19.456 17.25 19.6468 17.25 19.8457C17.25 20.0446 17.171 20.2354 17.0303 20.376C16.8897 20.5167 16.6989 20.5957 16.5 20.5957H3.25C2.58696 20.5957 1.95107 20.3323 1.48223 19.8635C1.01339 19.3946 0.75 18.7587 0.75 18.0957V3.0957ZM9 6.5957C9.26522 6.5957 9.51957 6.49035 9.70711 6.30281C9.89464 6.11527 10 5.86092 10 5.5957C10 5.33049 9.89464 5.07613 9.70711 4.8886C9.51957 4.70106 9.26522 4.5957 9 4.5957C8.73478 4.5957 8.48043 4.70106 8.29289 4.8886C8.10536 5.07613 8 5.33049 8 5.5957C8 5.86092 8.10536 6.11527 8.29289 6.30281C8.48043 6.49035 8.73478 6.5957 9 6.5957ZM8.25 8.3457V13.3457C8.25 13.5446 8.32902 13.7354 8.46967 13.876C8.61032 14.0167 8.80109 14.0957 9 14.0957C9.19891 14.0957 9.38968 14.0167 9.53033 13.876C9.67098 13.7354 9.75 13.5446 9.75 13.3457V8.3457C9.75 8.14679 9.67098 7.95603 9.53033 7.81537C9.38968 7.67472 9.19891 7.5957 9 7.5957C8.80109 7.5957 8.61032 7.67472 8.46967 7.81537C8.32902 7.95603 8.25 8.14679 8.25 8.3457Z" />
</svg>
