<svg width="20" height="19" viewBox="0 0 20 19" xmlns="http://www.w3.org/2000/svg">
<path d="M7.82369 17.5604V13.1256C7.82369 12.5733 8.27141 12.1256 8.82369 12.1256H11.1715C11.7238 12.1256 12.1715 12.5733 12.1715 13.1256V17.5604C12.1715 18.1582 12.6606 18.6473 13.2584 18.6473H16.5193C17.1171 18.6473 17.6062 18.1582 17.6062 17.5604V10.9517C17.6062 10.3994 18.0539 9.95172 18.6062 9.95172H19.454C19.954 9.95172 20.1932 9.33216 19.8127 9.00608L10.7258 0.821361C10.3128 0.451799 9.68237 0.451799 9.26933 0.821361L0.182446 9.00608C-0.187116 9.33216 0.0411431 9.95172 0.541139 9.95172H1.38895C1.94124 9.95172 2.38895 10.3994 2.38895 10.9517V17.5604C2.38895 18.1582 2.87808 18.6473 3.4759 18.6473H6.73674C7.33456 18.6473 7.82369 18.1582 7.82369 17.5604Z" />
<path d="M7.82369 17.5604V13.1256C7.82369 12.5733 8.27141 12.1256 8.82369 12.1256H11.1715C11.7238 12.1256 12.1715 12.5733 12.1715 13.1256V17.5604C12.1715 18.1582 12.6606 18.6473 13.2584 18.6473H16.5193C17.1171 18.6473 17.6062 18.1582 17.6062 17.5604V10.9517C17.6062 10.3994 18.0539 9.95172 18.6062 9.95172H19.454C19.954 9.95172 20.1932 9.33216 19.8127 9.00608L10.7258 0.821361C10.3128 0.451799 9.68237 0.451799 9.26933 0.821361L0.182446 9.00608C-0.187116 9.33216 0.0411431 9.95172 0.541139 9.95172H1.38895C1.94124 9.95172 2.38895 10.3994 2.38895 10.9517V17.5604C2.38895 18.1582 2.87808 18.6473 3.4759 18.6473H6.73674C7.33456 18.6473 7.82369 18.1582 7.82369 17.5604Z" />
</svg>
