<svg width="62" height="62" viewBox="0 0 62 62" fill="none" xmlns="http://www.w3.org/2000/svg">
<mask id="mask0_98_2099" style="mask-type:alpha" maskUnits="userSpaceOnUse" x="0" y="0" width="62" height="62">
<ellipse cx="31.0002" cy="30.928" rx="30.362" ry="30.1546" fill="#D9D9D9"/>
</mask>
<g mask="url(#mask0_98_2099)">
<path fill-rule="evenodd" clip-rule="evenodd" d="M29.81 27.6994L30.5313 27.7702L30.5425 27.7719C30.2865 27.733 30.0448 27.6965 29.81 27.6994ZM29.4121 32.119C28.9169 31.9119 28.5115 31.2094 28.5115 31.2094C28.5115 31.2094 29.5835 31.1962 31.4979 31.1962C33.4124 31.1962 34.4844 31.2094 34.4844 31.2094C34.4844 31.2094 34.079 31.9119 33.5838 32.119C33.0885 32.3261 32.1498 32.4956 31.4979 32.4956C30.8461 32.4956 29.9073 32.3261 29.4121 32.119ZM14.2286 61.0826V50.1675V39.2525H31.4979H48.7673V50.1675V61.0826H31.4979H14.2286Z" fill="black"/>
<path fill-rule="evenodd" clip-rule="evenodd" d="M29.6508 2.86363C28.9205 2.97355 27.7301 3.26072 27.0053 3.50137C26.2808 3.74228 24.9585 4.41122 24.0672 4.98764C23.1759 5.56405 21.8274 6.67063 21.0704 7.44664C20.3131 8.22264 19.2398 9.52751 18.6849 10.3464C18.1297 11.165 17.3181 12.5445 16.8813 13.4114C16.4445 14.2784 15.6689 16.1909 15.1575 17.661C14.6459 19.1314 13.9941 21.481 13.7087 22.8823C13.3649 24.5715 13.1927 26.4242 13.1984 28.3783C13.2047 30.5582 13.3296 31.6647 13.6781 32.6255C13.9372 33.3402 14.2232 34.1003 14.3133 34.3148C14.4356 34.6058 13.9567 34.9509 12.4222 35.6771C11.156 36.2763 9.76534 37.2075 8.79852 38.103C7.93583 38.9024 6.87474 40.1777 6.44054 40.9371C6.0066 41.6964 5.41918 43.2256 5.1356 44.335C4.70036 46.038 4.62012 47.2168 4.62012 51.8983V57.4442H8.51234H12.4046L12.4726 47.5037L12.5406 37.5633H17.2849H22.0289L21.3101 37.0508C20.9146 36.7688 19.922 35.9063 19.1045 35.1336C18.287 34.3608 17.3228 33.1359 16.9621 32.4114C16.5632 31.6107 16.3061 30.6515 16.3061 29.9654C16.3061 29.3349 16.5484 28.3533 16.8549 27.7423C17.1566 27.1407 17.6443 26.385 17.9388 26.0635C18.2333 25.742 18.5519 25.4788 18.647 25.4788C18.742 25.4788 18.9552 25.7766 19.1209 26.1407C19.2868 26.5048 19.4224 27.1233 19.4224 27.5152C19.4224 27.9069 19.6304 28.6324 19.8849 29.1273C20.1391 29.6218 21.3511 31.3155 22.5781 32.8909C24.3178 35.1243 25.1166 35.9255 26.2057 36.5292C27.5813 37.2917 27.6616 37.3034 31.4979 37.3034C35.3359 37.3034 35.4138 37.292 36.7927 36.5276C37.9047 35.9115 38.6919 35.1105 40.6237 32.6294C41.9606 30.9121 43.1616 29.1561 43.2923 28.7273C43.4229 28.2985 43.5995 27.5295 43.6849 27.0183C43.7701 26.5071 43.9913 25.8813 44.1765 25.6279C44.4827 25.209 44.6052 25.3008 45.5206 26.6308C46.3384 27.819 46.5485 28.3775 46.6368 29.5989C46.7256 30.8287 46.6269 31.3373 46.0961 32.3843C45.739 33.0886 44.7623 34.3116 43.9259 35.1017C43.0894 35.8917 42.0813 36.7688 41.6858 37.0508L40.967 37.5633H45.711H50.4553L50.5233 47.5037L50.5913 57.4442H54.4836H58.3758V51.8084C58.3758 47.5001 58.2771 45.7708 57.9566 44.4668C57.7263 43.5286 57.1732 42.0592 56.7278 41.2016C56.2824 40.344 55.3179 39.0485 54.5843 38.3226C53.8507 37.5968 52.7382 36.7075 52.1126 36.346C51.4867 35.9847 50.414 35.4788 49.7286 35.2217C48.7652 34.8602 48.5239 34.6604 48.665 34.3397C48.7649 34.1115 49.0698 33.2945 49.342 32.5236C49.7105 31.4807 49.8372 30.4139 49.8372 28.3528C49.8372 26.5809 49.6448 24.6383 49.3028 22.959C49.0088 21.5153 48.35 19.1314 47.8384 17.661C47.327 16.1909 46.5513 14.2784 46.1146 13.4114C45.6778 12.5445 44.8662 11.165 44.311 10.3464C43.7561 9.52751 42.6828 8.22264 41.9255 7.44664C41.1685 6.67063 39.8031 5.55314 38.891 4.96321C37.979 4.37328 36.4681 3.66848 35.534 3.3969C34.5997 3.12533 33.1924 2.84933 32.4069 2.78358C31.6213 2.71783 30.381 2.75396 29.6508 2.86363ZM23.5774 23.0606C23.5774 23.7487 23.7753 24.2277 24.2752 24.7498C24.9016 25.4042 25.1483 25.4788 26.6854 25.4788H28.398L29.9403 23.919L31.4829 22.3592L33.0556 23.919L34.6282 25.4788H36.3256C37.8463 25.4788 38.0953 25.4029 38.7207 24.7498C39.2206 24.2277 39.4185 23.7487 39.4185 23.0606C39.4185 22.5325 39.3974 22.1003 39.3974 22.1003C39.3974 22.1003 40.2552 22.3048 40.6943 22.5551C41.1916 22.8384 41.4934 23.2183 41.4944 23.5629C41.4952 23.867 41.3337 24.2506 41.1353 24.4151C40.9371 24.5798 40.6917 25.3837 40.5904 26.2012C40.4362 27.4443 40.1882 27.9736 39.0778 29.4329C38.2499 30.5208 37.7305 31.5361 37.7305 31.5361C37.7305 31.5361 37.4708 30.4281 37.3448 30.0787C37.2366 29.7784 37.1677 29.2759 36.9558 28.8661C36.7237 28.4162 36.2344 28.0173 35.7223 27.8596C35.3473 27.7441 34.9749 27.7044 33.4456 27.6994C32.9262 27.7193 32.0604 27.8596 31.4413 27.8596C31.1198 27.8596 30.8246 27.8147 30.5464 27.7725L30.5425 27.7719L30.5313 27.7702L29.81 27.6994C27.8623 27.6994 27.1301 27.7825 26.5176 28.3957C26.0219 28.8918 25.7676 29.4674 25.6677 30.3199L25.5251 31.5361L24.061 29.6119C22.8446 28.0137 22.5641 27.4456 22.4054 26.2584C22.3005 25.4723 22.0536 24.5983 21.8572 24.3163C21.6607 24.0346 21.4999 23.6172 21.4999 23.3891C21.4999 23.1609 21.8798 22.7851 22.3439 22.5538C22.808 22.3228 23.5774 22.1119 23.5774 22.1119V23.0606ZM35.7182 31.6783C35.4195 30.9589 34.9321 30.2151 34.635 30.0251C34.3379 29.8352 33.3352 29.621 32.4069 29.5493C31.4785 29.4778 30.2514 29.5015 29.6801 29.6021C29.1088 29.7026 28.4832 29.883 28.2897 30.0028C28.0963 30.1229 27.7189 30.7034 27.4515 31.2931C27.1837 31.883 26.9622 32.5761 26.9591 32.8332C26.9555 33.1339 27.3471 33.4795 28.0571 33.802C28.8743 34.1731 29.7526 34.3049 31.4413 34.309C32.9073 34.3127 34.0598 34.1736 34.6674 33.9195C35.1876 33.7019 35.7589 33.4028 35.9371 33.255C36.1923 33.0429 36.1459 32.7082 35.7182 31.6783Z" fill="black"/>
</g>
</svg>
