<svg width="20" height="21" viewBox="0 0 20 21" xmlns="http://www.w3.org/2000/svg">
<path d="M17.6905 16.9742C18.717 15.7401 19.431 14.2771 19.772 12.709C20.113 11.141 20.071 9.51387 19.6495 7.96543C19.2281 6.41699 18.4396 4.99276 17.3507 3.8132C16.2619 2.63365 14.9047 1.73348 13.394 1.18884C11.8834 0.644208 10.2637 0.47113 8.67188 0.68425C7.08011 0.89737 5.56313 1.49042 4.24926 2.41323C2.93539 3.33604 1.86329 4.56146 1.12365 5.98582C0.384016 7.41019 -0.00140285 8.9916 3.83677e-06 10.5963C0.000543632 12.929 0.823267 15.1871 2.32381 16.9742L2.30951 16.9863C2.35955 17.0463 2.41673 17.0977 2.4682 17.157C2.53253 17.2306 2.60186 17.2999 2.66834 17.3713C2.86848 17.5884 3.07434 17.7969 3.29021 17.9926C3.35597 18.0526 3.42388 18.1083 3.49035 18.1655C3.71909 18.3626 3.95426 18.5497 4.198 18.724C4.22945 18.7454 4.25805 18.7733 4.2895 18.7954V18.7868C5.96362 19.964 7.96076 20.5957 10.0079 20.5957C12.055 20.5957 14.0521 19.964 15.7262 18.7868V18.7954C15.7577 18.7733 15.7856 18.7454 15.8177 18.724C16.0608 18.549 16.2966 18.3626 16.5254 18.1655C16.5919 18.1083 16.6598 18.0519 16.7255 17.9926C16.9414 17.7962 17.1472 17.5884 17.3474 17.3713C17.4139 17.2999 17.4825 17.2306 17.5475 17.157C17.5983 17.0977 17.6562 17.0463 17.7062 16.9856L17.6905 16.9742ZM10.0072 4.8826C10.6433 4.8826 11.2652 5.0711 11.7942 5.42425C12.3232 5.7774 12.7354 6.27935 12.9789 6.86662C13.2223 7.4539 13.286 8.10011 13.1619 8.72356C13.0378 9.347 12.7315 9.91967 12.2816 10.3691C11.8318 10.8186 11.2586 11.1247 10.6347 11.2487C10.0107 11.3727 9.36397 11.3091 8.77622 11.0658C8.18847 10.8226 7.6861 10.4106 7.33266 9.88212C6.97922 9.35359 6.79057 8.73221 6.79057 8.09655C6.79057 7.24416 7.12946 6.42668 7.73268 5.82395C8.33591 5.22122 9.15406 4.8826 10.0072 4.8826ZM4.63848 17.2684C4.41452 17.0873 4.28823 16.8078 4.32851 16.5226C4.43727 15.7526 4.7958 15.0345 5.35551 14.4823C6.02343 13.8233 6.92413 13.4536 7.86276 13.4531H12.1515C13.0902 13.4536 13.9909 13.8233 14.6588 14.4823C15.2185 15.0345 15.577 15.7526 15.6858 16.5226C15.7261 16.8078 15.5998 17.0873 15.3758 17.2684C13.8602 18.4938 11.9659 19.1669 10.0072 19.1669C8.04838 19.1669 6.15407 18.4938 4.63848 17.2684Z"/>
<path d="M17.6905 16.9742C18.717 15.7401 19.431 14.2771 19.772 12.709C20.113 11.141 20.071 9.51387 19.6495 7.96543C19.2281 6.41699 18.4396 4.99276 17.3507 3.8132C16.2619 2.63365 14.9047 1.73348 13.394 1.18884C11.8834 0.644208 10.2637 0.47113 8.67188 0.68425C7.08011 0.89737 5.56313 1.49042 4.24926 2.41323C2.93539 3.33604 1.86329 4.56146 1.12365 5.98582C0.384016 7.41019 -0.00140285 8.9916 3.83677e-06 10.5963C0.000543632 12.929 0.823267 15.1871 2.32381 16.9742L2.30951 16.9863C2.35955 17.0463 2.41673 17.0977 2.4682 17.157C2.53253 17.2306 2.60186 17.2999 2.66834 17.3713C2.86848 17.5884 3.07434 17.7969 3.29021 17.9926C3.35597 18.0526 3.42388 18.1083 3.49035 18.1655C3.71909 18.3626 3.95426 18.5497 4.198 18.724C4.22945 18.7454 4.25805 18.7733 4.2895 18.7954V18.7868C5.96362 19.964 7.96076 20.5957 10.0079 20.5957C12.055 20.5957 14.0521 19.964 15.7262 18.7868V18.7954C15.7577 18.7733 15.7856 18.7454 15.8177 18.724C16.0608 18.549 16.2966 18.3626 16.5254 18.1655C16.5919 18.1083 16.6598 18.0519 16.7255 17.9926C16.9414 17.7962 17.1472 17.5884 17.3474 17.3713C17.4139 17.2999 17.4825 17.2306 17.5475 17.157C17.5983 17.0977 17.6562 17.0463 17.7062 16.9856L17.6905 16.9742ZM10.0072 4.8826C10.6433 4.8826 11.2652 5.0711 11.7942 5.42425C12.3232 5.7774 12.7354 6.27935 12.9789 6.86662C13.2223 7.4539 13.286 8.10011 13.1619 8.72356C13.0378 9.347 12.7315 9.91967 12.2816 10.3691C11.8318 10.8186 11.2586 11.1247 10.6347 11.2487C10.0107 11.3727 9.36397 11.3091 8.77622 11.0658C8.18847 10.8226 7.6861 10.4106 7.33266 9.88212C6.97922 9.35359 6.79057 8.73221 6.79057 8.09655C6.79057 7.24416 7.12946 6.42668 7.73268 5.82395C8.33591 5.22122 9.15406 4.8826 10.0072 4.8826ZM4.63848 17.2684C4.41452 17.0873 4.28823 16.8078 4.32851 16.5226C4.43727 15.7526 4.7958 15.0345 5.35551 14.4823C6.02343 13.8233 6.92413 13.4536 7.86276 13.4531H12.1515C13.0902 13.4536 13.9909 13.8233 14.6588 14.4823C15.2185 15.0345 15.577 15.7526 15.6858 16.5226C15.7261 16.8078 15.5998 17.0873 15.3758 17.2684C13.8602 18.4938 11.9659 19.1669 10.0072 19.1669C8.04838 19.1669 6.15407 18.4938 4.63848 17.2684Z"/>
</svg>
